<svg id="SvgjsSvg1001" width="288" height="288" xmlns="http://www.w3.org/2000/svg" version="1.1" xmlns:xlink="http://www.w3.org/1999/xlink" xmlns:svgjs="http://svgjs.com/svgjs"><defs id="SvgjsDefs1002"></defs><g id="SvgjsG1008" transform="matrix(1,0,0,1,0,0)"><svg xmlns="http://www.w3.org/2000/svg" viewBox="0 0 24 24" width="288" height="288"><path d="M23,22a1,1,0,0,1-1,1H2a1,1,0,0,1-1-1V2A1,1,0,0,1,3,2V18.7L9.17,9.45a1,1,0,0,1,1.66,0l3.1,4.65,7.2-12.6a1,1,0,0,1,1.74,1l-8,14A1,1,0,0,1,14,17a1,1,0,0,1-.86-.45L10,11.8,3.87,21H22A1,1,0,0,1,23,22Z" fill="#ffffff" class="color000 svgShape"></path></svg></g></svg>