<svg id="SvgjsSvg1001" width="288" height="288" xmlns="http://www.w3.org/2000/svg" version="1.1" xmlns:xlink="http://www.w3.org/1999/xlink" xmlns:svgjs="http://svgjs.com/svgjs"><defs id="SvgjsDefs1002"></defs><g id="SvgjsG1008" transform="matrix(1,0,0,1,0,0)"><svg xmlns="http://www.w3.org/2000/svg" enable-background="new 0 0 512 512" viewBox="0 0 512 512" width="288" height="288"><path fill="none" stroke="#ffffff" stroke-linecap="round" stroke-linejoin="round" stroke-miterlimit="2.613" stroke-width="7.999" d="
	M228,180H112c-6.6,0-12-5.4-12-12s5.4-12,12-12h240 M228,236H112c-6.6,0-12-5.4-12-12c0-6.6,5.4-12,12-12h116 M180,348h-68
	c-6.6,0-12-5.4-12-12c0-6.6,5.4-12,12-12h116 M228,292H112c-6.6,0-12-5.4-12-12c0-6.6,5.4-12,12-12h116 M264,191.3l128.9-26.2
	c4.2-0.8,7.9-1.2,8.6-1.2c7.7,0,10.5,5.1,10.5,12v172c-0.4,23.1-24,32-40,32c-18.2,0-40-10.1-40-32c0-28,37.5-34.3,56-21.9V220
	l-112,22.7V380c-0.4,23.1-24,32-40,32c-18.2,0-40-10.1-40-32c0-28,37.5-34.3,56-21.9l0-101.5l0-52.6
	C252,198.3,256.2,192.9,264,191.3L264,191.3z M112,100h240c6.6,0,12,5.4,12,12c0,6.6-5.4,12-12,12H112c-6.6,0-12-5.4-12-12
	C100,105.4,105.4,100,112,100z" clip-rule="evenodd" class="colorStroke000 svgStroke"></path></svg></g></svg>